<svg width="120" height="25" viewBox="0 0 120 25" fill="none" xmlns="http://www.w3.org/2000/svg">
<path fill-rule="evenodd" clip-rule="evenodd" d="M15.0345 16.3767C15.8125 15.6835 16.3195 14.7723 16.5585 13.6443H24.2385C23.8865 16.8684 22.6115 19.4787 20.4145 21.4771C18.2165 23.4754 15.5105 24.4751 12.2985 24.4751C9.95549 24.4751 7.84649 23.9509 5.97049 22.9033C4.09449 21.8558 2.63049 20.4 1.57849 18.536C0.526488 16.672 0.000488281 14.5799 0.000488281 12.2588C0.000488281 9.93771 0.526488 7.84566 1.57849 5.98165C2.63049 4.11764 4.09449 2.66187 5.97049 1.61432C7.84649 0.565747 9.95549 0.0424805 12.2985 0.0424805C15.4595 0.0424805 18.1285 1.00655 20.3055 2.93571C22.4815 4.86386 23.7675 7.39162 24.1605 10.518H16.5905C16.2695 9.48672 15.7205 8.65703 14.9425 8.02789C14.1655 7.39977 13.2945 7.0852 12.3305 7.0852C11.0035 7.0852 9.93349 7.56061 9.12049 8.51145C8.30549 9.46229 7.89949 10.7114 7.89949 12.2578C7.89949 13.795 8.30949 15.039 9.12749 15.9899C9.94749 16.9407 11.0135 17.4151 12.3305 17.4151C13.3565 17.4151 14.2585 17.069 15.0355 16.3767H15.0345ZM42.2945 10.0242C43.7855 11.48 44.5315 13.3634 44.5315 15.6712C44.5315 18.31 43.6735 20.4376 41.9565 22.0522C40.2385 23.6678 37.9765 24.4751 35.1665 24.4751C32.3905 24.4751 30.1335 23.6648 28.3945 22.0441C26.6545 20.4224 25.7855 18.3222 25.7855 15.7394C25.7855 14.3295 26.0245 12.9103 26.5015 11.4831C26.9785 10.0558 27.7165 8.49415 28.7155 6.80015L32.2455 0.824326L39.7055 0.823308L35.5285 7.87417C35.9455 7.85177 36.2745 7.84057 36.5165 7.84057C38.8755 7.84057 40.8005 8.56846 42.2935 10.0242H42.2945ZM37.2575 17.8376C37.7945 17.2807 38.0635 16.559 38.0635 15.6712C38.0635 14.7845 37.7945 14.0566 37.2575 13.4876C36.7195 12.9185 36.0225 12.6345 35.1675 12.6345C34.3115 12.6345 33.6135 12.9195 33.0775 13.4876C32.5385 14.0566 32.2705 14.7845 32.2705 15.6712C32.2705 16.559 32.5385 17.2807 33.0765 17.8376C33.6135 18.3955 34.3115 18.6744 35.1665 18.6744C36.0225 18.6744 36.7195 18.3955 37.2565 17.8376H37.2575ZM58.5165 11.2001C61.1665 11.9982 62.8405 14.3855 62.8405 17.4711C62.8405 19.1763 62.2625 20.6575 61.1225 21.8741C59.9895 23.0815 58.5685 23.6943 56.8985 23.6943H49.6725C49.6592 23.6942 49.6461 23.6914 49.6339 23.6861C49.6217 23.6808 49.6106 23.6731 49.6014 23.6635C49.5921 23.6538 49.5847 23.6424 49.5798 23.6299C49.5748 23.6174 49.5724 23.604 49.5725 23.5905V0.927146C49.5725 0.870137 49.6165 0.823308 49.6725 0.823308H56.0375C57.5845 0.823308 58.8615 1.34963 59.8305 2.38903C60.8265 3.3867 61.3345 4.72032 61.3345 6.34611C61.3345 8.52672 60.2715 10.3246 58.5165 11.2001V11.2001ZM60.5165 21.2908C61.5325 20.2371 62.0265 18.988 62.0265 17.4701C62.0265 15.7842 61.5195 14.4028 60.5195 13.3664C59.4845 12.2944 58.2095 11.7722 56.6215 11.7722H50.3875V22.8494H56.8975C58.3295 22.8494 59.5475 22.3251 60.5165 21.2918V21.2908ZM50.3865 1.66827V10.9282H56.0375C57.3595 10.9282 58.4425 10.4986 59.2585 9.65266C60.0955 8.7853 60.5195 7.6726 60.5195 6.34611C60.5195 3.59132 58.6765 1.66827 56.0375 1.66827H50.3875H50.3865ZM119.981 23.5304C119.992 23.5457 119.999 23.5637 120 23.5825C120.002 23.6013 119.998 23.6201 119.99 23.6369C119.981 23.6537 119.969 23.6679 119.953 23.6778C119.937 23.6878 119.919 23.6931 119.9 23.6933H119.142C119.126 23.6934 119.11 23.6895 119.096 23.6819C119.081 23.6743 119.069 23.6631 119.059 23.6495L110.96 11.876L107.383 16.1579V23.5895C107.384 23.603 107.381 23.6166 107.376 23.6292C107.372 23.6418 107.364 23.6534 107.355 23.6631C107.346 23.6729 107.335 23.6806 107.322 23.686C107.31 23.6914 107.297 23.6942 107.283 23.6943H106.681C106.668 23.6942 106.655 23.6914 106.643 23.6861C106.631 23.6808 106.62 23.6731 106.61 23.6635C106.601 23.6538 106.594 23.6424 106.589 23.6299C106.584 23.6174 106.581 23.604 106.581 23.5905V0.927146C106.581 0.870137 106.626 0.823308 106.681 0.823308H107.283C107.338 0.823308 107.383 0.870137 107.383 0.927146V14.8986L119 0.859957C119.01 0.848518 119.022 0.839314 119.035 0.832984C119.048 0.826655 119.063 0.823353 119.077 0.823308H119.873C119.929 0.823308 119.974 0.870137 119.974 0.927146C119.974 0.952597 119.964 0.976012 119.95 0.994336L111.499 11.2072L119.981 23.5304ZM101.496 0.823308C101.551 0.823308 101.596 0.870137 101.596 0.927146V23.5905C101.597 23.604 101.594 23.6174 101.589 23.6299C101.584 23.6424 101.577 23.6538 101.568 23.6635C101.558 23.6731 101.547 23.6808 101.535 23.6861C101.523 23.6914 101.51 23.6942 101.496 23.6943H101.219C101.204 23.6944 101.188 23.6906 101.174 23.6831C101.16 23.6757 101.148 23.6648 101.138 23.6516L86.5585 2.68019V23.5905C86.5586 23.604 86.5561 23.6174 86.5512 23.6299C86.5462 23.6424 86.5389 23.6538 86.5296 23.6635C86.5203 23.6731 86.5093 23.6808 86.4971 23.6861C86.4849 23.6914 86.4718 23.6942 86.4585 23.6943H85.8445C85.8312 23.6942 85.8181 23.6914 85.8059 23.6861C85.7937 23.6808 85.7826 23.6731 85.7734 23.6635C85.7641 23.6538 85.7567 23.6424 85.7518 23.6299C85.7468 23.6174 85.7444 23.604 85.7445 23.5905V0.927146C85.7445 0.870137 85.7895 0.823308 85.8445 0.823308H86.2345C86.2502 0.823542 86.2656 0.827535 86.2795 0.834963C86.2934 0.842391 86.3054 0.853046 86.3145 0.866065L100.781 21.6745V0.928164C100.781 0.871155 100.826 0.824326 100.881 0.824326H101.496V0.823308ZM82.1185 23.5538C82.1245 23.5694 82.1267 23.5863 82.1249 23.6029C82.1231 23.6196 82.1173 23.6355 82.108 23.6494C82.0987 23.6632 82.0863 23.6746 82.0717 23.6824C82.0572 23.6902 82.041 23.6943 82.0245 23.6943H81.3865C81.3657 23.6942 81.3455 23.6874 81.3286 23.675C81.3118 23.6626 81.2991 23.6451 81.2925 23.6251L78.7405 16.618H68.3375L65.7865 23.6271C65.7795 23.6468 65.7667 23.6638 65.7499 23.6758C65.7331 23.6879 65.713 23.6943 65.6925 23.6943H65.0535C65.037 23.6942 65.0208 23.69 65.0062 23.6821C64.9917 23.6741 64.9793 23.6626 64.9701 23.6487C64.9609 23.6347 64.9553 23.6187 64.9536 23.602C64.9519 23.5852 64.9543 23.5684 64.9605 23.5528L73.2505 0.890497C73.2575 0.870822 73.2703 0.853816 73.2871 0.841794C73.3039 0.829771 73.3239 0.823317 73.3445 0.823308H73.7325C73.7533 0.82318 73.7737 0.829685 73.7907 0.841915C73.8078 0.854144 73.8206 0.871485 73.8275 0.891515L82.1175 23.5538H82.1185ZM68.6365 15.773H78.4425L73.5405 2.45419L68.6375 15.773H68.6365Z" fill="white"/>
</svg>
