<svg width="132" height="20" viewBox="0 0 132 20" fill="none" xmlns="http://www.w3.org/2000/svg">
<path d="M50.3493 11.3335C50.9843 12.0743 51.3022 13.0358 51.3022 14.2172C51.3022 15.6809 50.7781 16.8059 49.7299 17.5961C48.6807 18.3864 47.1219 18.7775 45.0595 18.7775H37.5089V1.52566H44.5772C46.415 1.52566 47.8493 1.90593 48.8732 2.67143C49.8971 3.43692 50.4115 4.52624 50.4115 5.93642C50.4115 6.92275 50.1558 7.75163 49.6492 8.42502C49.1426 9.09842 48.4502 9.58168 47.5799 9.87778C48.7857 10.1085 49.7124 10.5967 50.3483 11.3335H50.3493ZM38.7419 2.60805V9.48563H44.5276C46.0124 9.48563 47.153 9.19349 47.9533 8.61021C48.7536 8.02594 49.1523 7.16834 49.1523 6.03248C49.1523 4.91444 48.7536 4.06378 47.9533 3.4795C47.1521 2.89523 46.0124 2.60409 44.5266 2.60409H38.7409V2.60805H38.7419ZM48.7993 16.8197C49.6453 16.2355 50.0712 15.3343 50.0712 14.1212C50.0712 12.9031 49.6482 12.0099 48.7993 11.4335C47.9533 10.8602 46.7048 10.572 45.0585 10.572H38.7419V17.6951H45.0585C46.7048 17.6951 47.9523 17.404 48.7983 16.8197H48.7993ZM65.1744 5.91166V18.7775H64.0133V16.0186C63.6157 16.8967 62.9661 17.6314 62.1502 18.1259C61.3285 18.628 60.361 18.8776 59.2457 18.8776C57.5985 18.8776 56.3091 18.4072 55.3717 17.4713C54.4353 16.5345 53.9666 15.1857 53.9666 13.431V5.91166H55.1762V13.3309C55.1762 14.7768 55.5399 15.876 56.2663 16.6345C56.9936 17.3931 58.0185 17.7665 59.339 17.7665C60.7587 17.7665 61.8848 17.3149 62.7162 16.4097C63.5485 15.5066 63.9647 14.2925 63.9647 12.7615V5.91166H65.1744ZM69.4081 18.4072C68.4883 18.0942 67.7677 17.7031 67.2543 17.2257L67.8095 16.2394C68.3268 16.6851 68.991 17.0515 69.8059 17.3505C70.6207 17.6456 71.4735 17.7952 72.3574 17.7952C73.6342 17.7952 74.5745 17.5813 75.1793 17.1545C75.7831 16.7276 76.0875 16.1364 76.0875 15.3779C76.0875 14.8372 75.9232 14.4094 75.5916 14.0964C75.2415 13.7732 74.8229 13.5366 74.3683 13.4052C73.885 13.2567 73.2141 13.1032 72.3574 12.9358C71.3578 12.7536 70.5507 12.5585 69.9391 12.3446C69.3381 12.1382 68.7972 11.7822 68.3657 11.3088C67.9282 10.8314 67.7123 10.1769 67.7123 9.33609C67.7123 8.31807 68.1275 7.47434 68.9599 6.80887C69.7922 6.14339 70.9727 5.81164 72.5042 5.81164C73.3113 5.81164 74.1087 5.92553 74.8992 6.15725C75.6898 6.38898 76.3355 6.69201 76.8362 7.06832L76.28 8.05465C75.7439 7.66718 75.1467 7.37581 74.5142 7.1931C73.8533 6.99682 73.1683 6.89746 72.4799 6.89799C71.3024 6.89799 70.4146 7.11883 69.8156 7.56347C69.2185 8.0091 68.921 8.59238 68.921 9.3153C68.921 9.89165 69.0892 10.3363 69.4286 10.6571C69.7862 10.9885 70.2126 11.2332 70.6761 11.3731C71.1691 11.5296 71.8576 11.6969 72.7464 11.8782C73.7285 12.0594 74.5258 12.2525 75.1297 12.4585C75.7345 12.6655 76.2479 12.9962 76.668 13.4557C77.0871 13.9142 77.2971 14.548 77.2971 15.3531C77.2971 16.4206 76.8596 17.2753 75.9903 17.916C75.12 18.5567 73.8928 18.8766 72.3127 18.8766C71.3256 18.8817 70.3442 18.7232 69.4072 18.4072H69.4081ZM79.381 2.49812C79.287 2.40829 79.2126 2.29939 79.1625 2.17846C79.1124 2.05752 79.0878 1.92723 79.0902 1.79601C79.0902 1.51873 79.1885 1.28006 79.381 1.08003C79.4721 0.984684 79.5813 0.909322 79.7021 0.858573C79.8228 0.807823 79.9525 0.782758 80.083 0.784919C80.3553 0.784919 80.5906 0.880977 80.7861 1.07012C80.9786 1.25828 81.0759 1.49298 81.0759 1.77125C81.0777 1.90421 81.053 2.03616 81.0031 2.15908C80.9533 2.282 80.8795 2.39331 80.7861 2.48624C80.695 2.58188 80.5856 2.6575 80.4647 2.70843C80.3438 2.75935 80.2139 2.78451 80.083 2.78234C79.8069 2.78234 79.5725 2.68628 79.381 2.49713V2.49812ZM79.4753 5.91166H80.685V18.7775H79.4753V5.91166ZM94.5318 7.21786C95.4507 8.15467 95.9126 9.50345 95.9126 11.2582V18.7775H94.7029V11.3583C94.7029 9.91244 94.3432 8.81322 93.6255 8.05465C92.9099 7.30005 91.9025 6.92275 90.6131 6.92275C89.1272 6.92275 87.9584 7.37432 87.1027 8.27945C86.247 9.18359 85.8192 10.3977 85.8192 11.9277V18.7805H84.6105V5.91265H85.7715V8.69636C86.195 7.80595 86.8738 7.06734 87.7183 6.57813C88.5817 6.06912 89.6028 5.81263 90.7813 5.81263C92.3605 5.81263 93.6119 6.28302 94.5318 7.21885V7.21786ZM110.409 12.6397H99.5406C99.5727 13.6439 99.8245 14.5341 100.292 15.3135C100.75 16.0832 101.407 16.7101 102.19 17.1257C102.992 17.5535 103.89 17.7665 104.89 17.7665C105.674 17.7737 106.452 17.6188 107.176 17.3109C107.862 17.0202 108.465 16.5588 108.931 15.9691L109.633 16.7811C109.077 17.4614 108.367 17.9939 107.564 18.3329C106.71 18.6991 105.792 18.8831 104.865 18.8736C103.606 18.8736 102.484 18.5924 101.502 18.0378C100.536 17.4984 99.7358 16.6961 99.1915 15.7205C98.6353 14.7332 98.3562 13.6082 98.3562 12.3406C98.3562 11.0919 98.6178 9.96988 99.1429 8.97662C99.6408 8.01224 100.391 7.20659 101.309 6.64844C102.229 6.08991 103.26 5.81164 104.407 5.81164C105.554 5.81164 106.582 6.08595 107.494 6.63755C108.406 7.18903 109.151 7.98605 109.648 8.94097C110.172 9.9273 110.433 11.0453 110.433 12.2951L110.409 12.6397V12.6397ZM102.009 7.50306C101.3 7.9036 100.711 8.49136 100.303 9.20438C99.8761 9.93423 99.6281 10.7601 99.5659 11.6821H109.245C109.196 10.7641 108.955 9.94116 108.518 9.21924C108.097 8.51122 107.505 7.92505 106.799 7.51693C106.089 7.10793 105.288 6.90096 104.404 6.90096C103.52 6.90096 102.718 7.101 102.009 7.50306V7.50306ZM113.289 18.4072C112.37 18.0942 111.65 17.7031 111.136 17.2257L111.693 16.2394C112.21 16.6851 112.874 17.0515 113.688 17.3505C114.503 17.6456 115.356 17.7952 116.24 17.7952C117.516 17.7952 118.457 17.5813 119.061 17.1545C119.666 16.7276 119.971 16.1364 119.971 15.3779C119.971 14.8372 119.806 14.4094 119.474 14.0964C119.124 13.773 118.705 13.5364 118.25 13.4052C117.768 13.2567 117.096 13.1032 116.24 12.9358C115.241 12.7536 114.433 12.5585 113.821 12.3446C113.22 12.138 112.679 11.782 112.248 11.3088C111.811 10.8314 111.594 10.1769 111.594 9.33609C111.594 8.31807 112.011 7.47434 112.842 6.80887C113.674 6.14339 114.856 5.81164 116.387 5.81164C117.194 5.81164 117.992 5.92553 118.781 6.15725C119.572 6.38898 120.218 6.69201 120.718 7.06832L120.162 8.05465C119.626 7.66732 119.029 7.37595 118.397 7.1931C117.736 6.99686 117.051 6.8975 116.363 6.89799C115.184 6.89799 114.297 7.11883 113.699 7.56347C113.101 8.0091 112.804 8.59238 112.804 9.3153C112.804 9.89165 112.971 10.3363 113.311 10.6571C113.65 10.978 114.066 11.2157 114.558 11.3731C115.051 11.5296 115.741 11.6969 116.628 11.8782C117.611 12.0594 118.408 12.2525 119.013 12.4585C119.618 12.6655 120.131 12.9962 120.55 13.4557C120.97 13.9142 121.179 14.548 121.179 15.3531C121.179 16.4206 120.743 17.2753 119.872 17.916C119.002 18.5567 117.775 18.8766 116.195 18.8766C115.208 18.8816 114.226 18.7231 113.289 18.4072V18.4072ZM123.672 18.4072C122.753 18.0942 122.033 17.7031 121.519 17.2257L122.075 16.2394C122.592 16.6851 123.256 17.0515 124.071 17.3505C124.885 17.6456 125.738 17.7952 126.623 17.7952C127.898 17.7952 128.839 17.5813 129.444 17.1545C130.048 16.7276 130.353 16.1364 130.353 15.3779C130.353 14.8372 130.188 14.4094 129.856 14.0964C129.506 13.773 129.087 13.5364 128.633 13.4052C128.15 13.2567 127.479 13.1032 126.623 12.9358C125.623 12.7536 124.815 12.5585 124.203 12.3446C123.602 12.138 123.062 11.782 122.63 11.3088C122.193 10.8314 121.977 10.1769 121.977 9.33609C121.977 8.31807 122.393 7.47434 123.225 6.80887C124.057 6.14339 125.238 5.81164 126.769 5.81164C127.577 5.81164 128.374 5.92553 129.164 6.15725C129.954 6.38898 130.601 6.69201 131.1 7.06832L130.545 8.05465C130.009 7.66713 129.412 7.37575 128.779 7.1931C128.119 6.9968 127.434 6.89743 126.745 6.89799C125.567 6.89799 124.679 7.11883 124.081 7.56347C123.484 8.0091 123.186 8.59238 123.186 9.3153C123.186 9.89165 123.354 10.3363 123.693 10.6571C124.032 10.978 124.448 11.2157 124.941 11.3731C125.434 11.5296 126.123 11.6969 127.011 11.8782C127.993 12.0594 128.79 12.2525 129.395 12.4585C130 12.6655 130.513 12.9962 130.933 13.4557C131.352 13.9142 131.562 14.548 131.562 15.3531C131.562 16.4206 131.125 17.2753 130.255 17.916C129.384 18.5567 128.157 18.8766 126.577 18.8766C125.59 18.8817 124.609 18.7231 123.672 18.4072V18.4072ZM11.3535 13.0992C10.7895 13.604 10.0623 13.8791 9.31149 13.8716C8.31965 13.8716 7.51159 13.5191 6.89218 12.815C6.27374 12.1099 5.96646 11.1879 5.96646 10.0481C5.96646 8.90234 6.27374 7.97246 6.88926 7.26836C7.50478 6.56327 8.31187 6.21073 9.31149 6.21073C10.0388 6.21073 10.6962 6.44147 11.2835 6.9079C11.8708 7.37432 12.286 7.99028 12.5282 8.75578H18.2468C17.9502 6.43454 16.9778 4.56189 15.3345 3.13092C13.6911 1.69995 11.6744 0.983967 9.28718 0.983967C7.51743 0.983967 5.92465 1.37216 4.50885 2.14855C3.12795 2.89208 1.97874 4.01408 1.19105 5.3878C0.397581 6.76925 -0.00109863 8.32203 -0.00109863 10.0451C-0.00109863 11.7682 0.397581 13.32 1.19105 14.7015C1.98452 16.0859 3.08916 17.1653 4.50885 17.9407C5.92465 18.7171 7.5184 19.1053 9.28718 19.1053C11.7133 19.1053 13.7582 18.3646 15.4152 16.8801C17.076 15.3997 18.0367 13.4587 18.3032 11.0701H12.5029C12.321 11.9069 11.9369 12.5833 11.3535 13.1002V13.0992ZM28.1331 14.1816C27.7276 14.5945 27.1996 14.8015 26.5529 14.8015C25.9063 14.8015 25.3822 14.5945 24.9757 14.1816C24.5702 13.7686 24.368 13.2309 24.368 12.5763C24.368 11.9178 24.5702 11.3761 24.9757 10.9562C25.3822 10.5363 25.9092 10.3224 26.5529 10.3224C27.1996 10.3224 27.7237 10.5324 28.1331 10.9562C28.5386 11.3761 28.7408 11.9168 28.7408 12.5763C28.7408 13.2349 28.5386 13.7686 28.1331 14.1816ZM31.9361 8.38541C30.811 7.30698 29.3563 6.76628 27.574 6.76628C27.3921 6.76628 27.1432 6.77322 26.8291 6.79104L29.9816 1.56131H24.3505L21.6832 5.99386C20.9277 7.25054 20.3724 8.41017 20.0117 9.4678C19.6588 10.4822 19.4757 11.5497 19.4701 12.6258C19.4701 14.5411 20.1274 16.1008 21.4421 17.304C22.7567 18.5072 24.4584 19.1093 26.5568 19.1093C28.6786 19.1093 30.3881 18.5111 31.6842 17.3109C32.9814 16.1117 33.629 14.5341 33.629 12.5763C33.6242 10.8631 33.0621 9.46483 31.9371 8.38541H31.9361Z" fill="white"/>
</svg>
